<svg id="visual" viewBox="0 0 900 200" width="900" height="200" xmlns="http://www.w3.org/2000/svg" xmlns:xlink="http://www.w3.org/1999/xlink" version="1.1"><path d="M0 58L15 61.2C30 64.3 60 70.7 90 67.7C120 64.7 150 52.3 180 50.2C210 48 240 56 270 63C300 70 330 76 360 72.8C390 69.7 420 57.3 450 57.7C480 58 510 71 540 72C570 73 600 62 630 56C660 50 690 49 720 52C750 55 780 62 810 64C840 66 870 63 885 61.5L900 60L900 201L885 201C870 201 840 201 810 201C780 201 750 201 720 201C690 201 660 201 630 201C600 201 570 201 540 201C510 201 480 201 450 201C420 201 390 201 360 201C330 201 300 201 270 201C240 201 210 201 180 201C150 201 120 201 90 201C60 201 30 201 15 201L0 201Z" fill="#382e78"></path><path d="M0 50L15 54C30 58 60 66 90 75C120 84 150 94 180 96C210 98 240 92 270 88.8C300 85.7 330 85.3 360 81C390 76.7 420 68.3 450 64.3C480 60.3 510 60.7 540 59.7C570 58.7 600 56.3 630 56.8C660 57.3 690 60.7 720 64.3C750 68 780 72 810 76.5C840 81 870 86 885 88.5L900 91L900 201L885 201C870 201 840 201 810 201C780 201 750 201 720 201C690 201 660 201 630 201C600 201 570 201 540 201C510 201 480 201 450 201C420 201 390 201 360 201C330 201 300 201 270 201C240 201 210 201 180 201C150 201 120 201 90 201C60 201 30 201 15 201L0 201Z" fill="#3e3386"></path><path d="M0 102L15 100.3C30 98.7 60 95.3 90 97.2C120 99 150 106 180 105.2C210 104.3 240 95.7 270 91.2C300 86.7 330 86.3 360 91C390 95.7 420 105.3 450 102.5C480 99.7 510 84.3 540 83.2C570 82 600 95 630 96.5C660 98 690 88 720 87C750 86 780 94 810 100.3C840 106.7 870 111.3 885 113.7L900 116L900 201L885 201C870 201 840 201 810 201C780 201 750 201 720 201C690 201 660 201 630 201C600 201 570 201 540 201C510 201 480 201 450 201C420 201 390 201 360 201C330 201 300 201 270 201C240 201 210 201 180 201C150 201 120 201 90 201C60 201 30 201 15 201L0 201Z" fill="#453995"></path><path d="M0 110L15 113.7C30 117.3 60 124.7 90 126.5C120 128.3 150 124.7 180 119.5C210 114.3 240 107.7 270 109.2C300 110.7 330 120.3 360 121.5C390 122.7 420 115.3 450 109.5C480 103.7 510 99.3 540 96.5C570 93.7 600 92.3 630 92C660 91.7 690 92.3 720 98.7C750 105 780 117 810 118C840 119 870 109 885 104L900 99L900 201L885 201C870 201 840 201 810 201C780 201 750 201 720 201C690 201 660 201 630 201C600 201 570 201 540 201C510 201 480 201 450 201C420 201 390 201 360 201C330 201 300 201 270 201C240 201 210 201 180 201C150 201 120 201 90 201C60 201 30 201 15 201L0 201Z" fill="#4c3ea4"></path><path d="M0 111L15 113.3C30 115.7 60 120.3 90 120.7C120 121 150 117 180 117.3C210 117.7 240 122.3 270 124C300 125.7 330 124.3 360 121.2C390 118 420 113 450 116C480 119 510 130 540 135.7C570 141.3 600 141.7 630 139.8C660 138 690 134 720 133.5C750 133 780 136 810 133.7C840 131.3 870 123.7 885 119.8L900 116L900 201L885 201C870 201 840 201 810 201C780 201 750 201 720 201C690 201 660 201 630 201C600 201 570 201 540 201C510 201 480 201 450 201C420 201 390 201 360 201C330 201 300 201 270 201C240 201 210 201 180 201C150 201 120 201 90 201C60 201 30 201 15 201L0 201Z" fill="#5244b2"></path><path d="M0 140L15 139C30 138 60 136 90 134.3C120 132.7 150 131.3 180 133.8C210 136.3 240 142.7 270 144.8C300 147 330 145 360 146.5C390 148 420 153 450 155.7C480 158.3 510 158.7 540 153.5C570 148.3 600 137.7 630 134.7C660 131.7 690 136.3 720 136.5C750 136.7 780 132.3 810 131C840 129.7 870 131.3 885 132.2L900 133L900 201L885 201C870 201 840 201 810 201C780 201 750 201 720 201C690 201 660 201 630 201C600 201 570 201 540 201C510 201 480 201 450 201C420 201 390 201 360 201C330 201 300 201 270 201C240 201 210 201 180 201C150 201 120 201 90 201C60 201 30 201 15 201L0 201Z" fill="#5a49c1"></path><path d="M0 150L15 152.5C30 155 60 160 90 160.3C120 160.7 150 156.3 180 154.7C210 153 240 154 270 156C300 158 330 161 360 164.2C390 167.3 420 170.7 450 170.5C480 170.3 510 166.7 540 166.5C570 166.3 600 169.7 630 171.2C660 172.7 690 172.3 720 170.2C750 168 780 164 810 161.8C840 159.7 870 159.3 885 159.2L900 159L900 201L885 201C870 201 840 201 810 201C780 201 750 201 720 201C690 201 660 201 630 201C600 201 570 201 540 201C510 201 480 201 450 201C420 201 390 201 360 201C330 201 300 201 270 201C240 201 210 201 180 201C150 201 120 201 90 201C60 201 30 201 15 201L0 201Z" fill="#614fd1"></path><path d="M0 170L15 170.3C30 170.7 60 171.3 90 171.8C120 172.3 150 172.7 180 174.8C210 177 240 181 270 182.3C300 183.7 330 182.3 360 179.2C390 176 420 171 450 170.5C480 170 510 174 540 175.8C570 177.7 600 177.3 630 179C660 180.7 690 184.3 720 184.8C750 185.3 780 182.7 810 180.7C840 178.7 870 177.3 885 176.7L900 176L900 201L885 201C870 201 840 201 810 201C780 201 750 201 720 201C690 201 660 201 630 201C600 201 570 201 540 201C510 201 480 201 450 201C420 201 390 201 360 201C330 201 300 201 270 201C240 201 210 201 180 201C150 201 120 201 90 201C60 201 30 201 15 201L0 201Z" fill="#6855e0"></path></svg>